<svg height="50" viewBox="0 0 281 50" width="281" xmlns="http://www.w3.org/2000/svg" xmlns:xlink="http://www.w3.org/1999/xlink"><mask id="a" fill="#fff"><path d="m.04261071.20536765h127.62921329v48.79463235h-127.62921329z" fill="#fff" fill-rule="evenodd"/></mask><g fill="none" fill-rule="evenodd" transform="translate(-.202247 .5)"><g fill="#09235c"><path d="m146.592042 23.7262754-10.228294-23.7262754h-7.009815v35h7.45832v-14.9883405l6.47119 14.9883405h6.633964l6.449533-14.9727269v14.9727269h7.481375v-35h-7.013309z"/><path d="m167.297753 35h24.146067v-7.5555601h-16.285362v-6.5122881h12.209604v-7.6009814h-12.209604v-5.75218995h16.285362v-7.57898045h-24.146067z"/><path d="m206.07099 10.5696934-7.088478-10.5696934h-9.263411l12.464683 18.6511477v16.3488523h7.839565v-16.3488523l12.465415-18.6511477h-9.30587z"/><path d="m222.488764 35h24.146067v-7.5555601h-16.286355v-6.5122881h12.206668v-7.6009814h-12.206668v-5.75218995h16.286355v-7.57898045h-24.146067z"/><path d="m257.795841 7.57898045h11.116221c.82931 0 1.517753.29665829 2.166464.9332671.647989.6358991.948505 1.31863898.948505 2.14899825 0 .8445535-.29257 1.5294225-.925389 2.149708-.630651.6224147-1.324873.9105565-2.18958.9105565h-11.116221zm14.874844 13.09341795c1.719301-.6231243 3.216105-1.6656866 4.470183-3.1184605 1.740251-1.9893138 2.624463-4.3107714 2.624463-6.8926921 0-2.88141775-1.081426-5.40727143-3.216105-7.50304157-2.131066-2.09577013-4.699904-3.15820423-7.637164-3.15820423h-18.827792v35h7.711571v-13.6753792h6.359247l8.026536 13.6753792h8.947589z"/></g><g mask="url(#a)"><g fill="#ed1c24"><path d="m98.1104432.20536765-43.0375245 48.79463235h28.4859679l24.8008524-48.79463235z"/><path d="m0 49h44.0324845l50.4993694-48.79463235h-15.8398202z"/><path d="m111.905317 0-18.7704855 49h29.3202245v-49z"/></g><path d="m17.247191 31.5 55.1910112-31.5h-55.1910112z" fill="#09235c"/></g></g></svg>